<?xml version="1.0" encoding="UTF-8" standalone="no"?>
<!-- Created with Inkscape (http://www.inkscape.org/) -->

<svg
   xmlns:dc="http://purl.org/dc/elements/1.1/"
   xmlns:cc="http://creativecommons.org/ns#"
   xmlns:rdf="http://www.w3.org/1999/02/22-rdf-syntax-ns#"
   xmlns:svg="http://www.w3.org/2000/svg"
   xmlns="http://www.w3.org/2000/svg"
   version="1.1"
   width="500"
   height="387.76419"
   id="svg3131">
  <defs
     id="defs3133" />
  <metadata
     id="metadata3136">
    <rdf:RDF>
      <cc:Work
         rdf:about="">
        <dc:format>image/svg+xml</dc:format>
        <dc:type
           rdf:resource="http://purl.org/dc/dcmitype/StillImage" />
        <dc:title></dc:title>
      </cc:Work>
    </rdf:RDF>
  </metadata>
  <g
     transform="translate(0.24901104,-1.2239184)"
     id="layer1">
    <g
       transform="matrix(0.67801079,0,0,0.67801079,-0.08017884,2.4578759)"
       id="g4351">
      <path
         d="M 283.4283,564.11113 C 192.84151,547.69053 119.79493,511.53272 68.42228,457.68392 25.068679,412.24069 4.1925673,364.3825 0.29070041,301.49328 -4.3744781,226.30121 21.271679,159.04254 74.603062,106.6044 111.83768,69.993412 152.21864,46.358162 212.13641,26.105197 285.49526,1.3089722 315.54923,-1.2917868 528.73169,-1.2917868 l 187.27844,0 L 683.09389,31.0986 c -63.05859,62.051184 -78.85762,124.47362 -47.27738,186.79426 5.47016,10.79487 22.81134,34.67053 38.53589,53.05703 67.54964,78.98485 80.23834,152.81874 40.04722,233.02999 -8.8604,17.68312 -23.28534,39.79289 -32.05545,49.13286 l -15.94563,16.98176 -176.9704,-0.36041 c -127.61497,-0.26012 -185.06648,-1.8282 -205.99984,-5.62276 z"
         id="path4367"
         style="fill:#9dd3e0" />
      <path
         d="M 284.8634,563.6728 C 192.14173,546.92898 117.97834,510.37445 67.713813,456.64152 20.986043,406.68937 1.1445015,355.8199 1.3111403,286.39921 1.3744998,260.00401 3.9261158,234.92297 8.1912635,218.77123 38.940514,102.3265 159.43136,19.62404 322.75024,2.8643548 345.02554,0.57847684 442.62166,-1.2917868 539.63046,-1.2917868 l 176.37967,0 -32.30841,31.7922608 c -36.55542,35.9714 -54.34136,65.56873 -62.09898,103.337956 -9.41449,45.83601 6.51664,85.36125 58.27045,144.56937 28.16603,32.22286 48.9863,73.55972 54.83862,108.87733 9.44825,57.01856 -13.53067,124.49513 -58.51323,171.82118 L 665.75447,570.0945 491.10394,569.73609 C 358.51392,569.46398 308.84569,568.00371 284.8634,563.67296 z"
         id="path4365"
         style="fill:#5bc8e5" />
      <path
         d="M 284.8634,563.6728 C 192.14173,546.92898 117.97834,510.37445 67.713813,456.64152 20.986043,406.68937 1.1445015,355.8199 1.3111403,286.39921 1.3744998,260.00401 3.9261158,234.92297 8.1912635,218.77123 38.940514,102.3265 159.43136,19.62404 322.75024,2.8643548 345.02554,0.57847684 442.62166,-1.2917868 539.63046,-1.2917868 l 176.37967,0 -32.30841,31.7922608 c -36.55542,35.9714 -54.34136,65.56873 -62.09898,103.337956 -9.41449,45.83601 6.51664,85.36125 58.27045,144.56937 28.16603,32.22286 48.9863,73.55972 54.83862,108.87733 9.44825,57.01856 -13.53067,124.49513 -58.51323,171.82118 L 665.75447,570.0945 491.10394,569.73609 C 358.51392,569.46398 308.84569,568.00371 284.8634,563.67296 z m 366.86706,-54.68143 c 5.51847,-7.23507 15.04983,-23.8672 21.18085,-36.9603 9.4578,-20.19775 11.14726,-28.9531 11.14726,-57.76919 0,-41.47416 -9.92378,-64.75248 -44.35975,-104.05533 -50.77998,-57.95669 -69.51793,-100.0625 -69.51793,-156.21265 0,-31.71208 9.57052,-70.473569 22.27479,-90.214846 3.13236,-4.867368 5.69517,-9.812057 5.69517,-10.988197 0,-1.176141 -30.11766,-2.134959 -66.92812,-2.130712 l -66.92811,0.0076 -12.69952,18.971891 c -26.12394,39.026654 -32.84261,68.706754 -23.66371,104.535604 7.63213,29.79102 21.80614,58.48378 45.16757,91.43359 22.69742,32.01328 39.02532,68.01541 45.29131,99.8648 7.06174,35.8941 3.13755,92.11387 -8.91382,127.70337 l -9.80947,28.96888 71.01497,0 71.015,0 10.03351,-13.15463 z"
         id="path4363"
         style="fill:#50b7d0" />
      <path
         d="M 296.8135,565.67277 C 187.19995,549.68566 90.326809,496.31279 42.144605,425.36136 -10.826693,347.35766 -13.450933,237.26366 35.708298,155.34073 53.736698,125.29674 96.33142,83.809872 129.30145,64.181854 167.21646,41.60995 220.846,20.874913 268.50491,10.360984 306.13059,2.0604644 320.35214,1.4479372 512.24312,-0.13691402 L 716.02424,-1.8199674 683.65605,29.410862 C 629.6435,81.525513 608.94114,136.87214 624.03684,188.79957 c 8.88082,30.54885 20.00647,48.90118 51.90058,85.61252 32.46676,37.37053 48.72626,67.48146 56.6056,104.82771 12.54712,59.47078 -6.99705,125.23526 -51.5973,173.62081 L 665.0601,570.0945 492.75461,569.60727 c -94.76802,-0.26812 -182.94152,-2.03853 -195.94111,-3.9345 z m 362.50648,-66.19626 c 43.76144,-66.45094 34.62961,-130.22778 -29.06382,-202.98231 -46.01601,-52.56228 -62.94427,-96.77702 -59.01289,-154.135 1.85528,-27.06771 7.03596,-44.641063 25.56306,-86.712143 1.71124,-3.88591 -12.85344,-4.994636 -65.61161,-4.994636 l -67.81112,0 -10.34605,14.983907 c -20.51585,29.712602 -28.49396,53.059232 -28.33269,82.910952 0.19779,36.59566 9.70234,60.19752 46.78031,116.16461 39.76773,60.02712 48.86572,88.13673 48.40357,149.54999 -0.28529,37.92926 -2.12947,51.35636 -10.56381,76.91738 l -10.21802,30.96674 72.64201,0 72.64202,0 14.92904,-22.66949 z"
         id="path4361"
         style="fill:#00aced" />
      <path
         d="M 296.8135,565.67277 C 187.19995,549.68566 90.326809,496.31279 42.144605,425.36136 -10.826693,347.35766 -13.450933,237.26366 35.708298,155.34073 53.736698,125.29674 96.33142,83.809872 129.30145,64.181854 167.21646,41.60995 220.846,20.874913 268.50491,10.360984 306.13059,2.0604644 320.35214,1.4479372 512.24312,-0.13691402 L 716.02424,-1.8199674 683.65605,29.410862 C 629.6435,81.525513 608.94114,136.87214 624.03684,188.79957 c 8.88082,30.54885 20.00647,48.90118 51.90058,85.61252 32.46676,37.37053 48.72626,67.48146 56.6056,104.82771 12.54712,59.47078 -6.99705,125.23526 -51.5973,173.62081 L 665.0601,570.0945 492.75461,569.60727 c -94.76802,-0.26812 -182.94152,-2.03853 -195.94111,-3.9345 z m 154.68998,-68.59388 c 20.70843,-51.7288 23.90512,-107.20305 8.46562,-146.90995 -11.37402,-29.25145 -11.15913,-29.14035 -51.54587,-26.64786 -43.55968,2.68831 -64.60302,9.28094 -75.19659,23.55821 -7.02371,9.46606 -7.3615,12.189 -2.86015,23.05622 2.80729,6.77738 10.49092,16.85517 17.07474,22.39509 6.58382,5.53993 11.23055,10.81265 10.32606,11.71711 -0.90449,0.90451 -15.61976,-1.9356 -32.7006,-6.31129 -62.01763,-15.88744 -92.53288,-36.25412 -97.17446,-64.85681 -2.0638,-12.71772 -0.66975,-16.18638 11.32668,-28.18281 20.98061,-20.98061 88.60354,-38.47613 148.71628,-38.47613 l 20.95717,0 -13.22277,-26.97103 C 362.70423,172.2088 362.9931,132.91695 397.02091,55.647057 400.19982,48.428442 340.64306,49.078772 295.99934,56.75016 164.83741,79.28848 73.726251,149.01535 54.498451,241.56946 c -6.295857,30.30548 -2.757242,85.04537 7.332429,113.42749 30.059781,84.5578 129.74288,147.87531 256.62039,163.00227 14.28465,1.70309 47.80723,3.33282 74.49462,3.62163 l 48.52252,0.52515 10.03507,-25.06711 z m 207.8165,2.39762 c 43.76144,-66.45094 34.62961,-130.22778 -29.06382,-202.98231 -46.01601,-52.56228 -62.94427,-96.77702 -59.01289,-154.135 1.85528,-27.06771 7.03596,-44.641063 25.56306,-86.712143 1.71124,-3.88591 -12.85344,-4.994636 -65.61161,-4.994636 l -67.81112,0 -10.34605,14.983907 c -20.51585,29.712602 -28.49396,53.059232 -28.33269,82.910952 0.19779,36.59566 9.70234,60.19752 46.78031,116.16461 39.76773,60.02712 48.86572,88.13673 48.40357,149.54999 -0.28529,37.92926 -2.12947,51.35636 -10.56381,76.91738 l -10.21802,30.96674 72.64201,0 72.64202,0 14.92904,-22.66949 z"
         id="path4359"
         style="fill:#03a5ce" />
      <path
         d="M 296.8135,565.67277 C 187.19995,549.68566 90.326809,496.31279 42.144605,425.36136 -10.826693,347.35766 -13.450933,237.26366 35.708298,155.34073 53.736698,125.29674 96.33142,83.809872 129.30145,64.181854 167.21646,41.60995 220.846,20.874913 268.50491,10.360984 306.13059,2.0604644 320.35214,1.4479372 512.24312,-0.13691402 L 716.02424,-1.8199674 683.65605,29.410862 C 629.6435,81.525513 608.94114,136.87214 624.03684,188.79957 c 8.88082,30.54885 20.00647,48.90118 51.90058,85.61252 32.46676,37.37053 48.72626,67.48146 56.6056,104.82771 12.54712,59.47078 -6.99705,125.23526 -51.5973,173.62081 L 665.0601,570.0945 492.75461,569.60727 c -94.76802,-0.26812 -182.94152,-2.03853 -195.94111,-3.9345 z m 154.50394,-66.50209 c 15.44357,-35.16367 20.25192,-61.91738 18.04765,-100.41706 -1.35191,-23.61232 -4.87816,-41.18727 -11.21747,-55.90802 l -9.24579,-21.46993 -40.25209,1.8227 c -79.40715,3.5957 -100.76977,26.95316 -62.73922,68.59779 l 10.49997,11.49778 -15.40494,-2.76747 c -24.8499,-4.4643 -63.27243,-17.50059 -80.3739,-27.26987 -30.9836,-17.69952 -41.50149,-47.64203 -23.66023,-67.35639 16.32823,-18.04249 69.6649,-32.86207 136.19746,-37.84244 l 36.73692,-2.74998 -11.20761,-22.41888 C 366.9856,179.45349 364.08183,131.17507 388.63917,75.646564 c 5.34944,-12.096044 9.72626,-22.923099 9.72626,-24.060126 0,-1.137023 -23.82441,-1.035356 -52.94313,0.225918 -131.6586,5.70281 -236.13067,61.896874 -277.662288,149.350654 -13.213109,27.82305 -14.629008,34.22707 -16.246335,73.48095 -1.48182,35.96513 -0.3716,47.61127 6.784989,71.17271 21.124526,69.54789 81.763684,123.43517 173.587574,154.25939 43.35523,14.5538 91.051,21.22836 154.94532,21.68291 l 54.39531,0.38703 10.09057,-22.97532 z m 207.90177,1.99785 C 685.37939,461.67959 693.76227,422.94459 684.21405,385.6742 676.04106,353.77193 665.35582,335.73481 632.65834,298.64604 561.24137,217.6377 552.1658,145.62408 601.27889,49.653494 c 0.84349,-1.648229 -29.17211,-2.996781 -66.70132,-2.996781 l -68.23499,0 -12.51292,16.98176 c -22.84283,31.000815 -29.36678,49.821577 -29.43239,84.908807 -0.0703,37.69111 9.05583,60.21889 48.96593,120.87036 28.17466,42.81707 39.30562,70.01596 45.38713,110.90533 5.12937,34.48732 0.22695,80.59903 -12.38398,116.47893 -4.45953,12.6881 -8.10821,23.58112 -8.10821,24.20669 0,0.62556 33.08942,1.13741 73.53206,1.13741 l 73.53206,0 13.89695,-20.97747 z"
         id="path4357"
         style="fill:#009ac8" />
      <path
         d="M 296.8135,565.67277 C 187.19995,549.68566 90.326809,496.31279 42.144605,425.36136 -10.826693,347.35766 -13.450933,237.26366 35.708298,155.34073 53.736698,125.29674 96.33142,83.809872 129.30145,64.181854 167.21646,41.60995 220.846,20.874913 268.50491,10.360984 306.13059,2.0604644 320.35214,1.4479372 512.24312,-0.13691402 L 716.02424,-1.8199674 683.65605,29.410862 C 629.6435,81.525513 608.94114,136.87214 624.03684,188.79957 c 8.88082,30.54885 20.00647,48.90118 51.90058,85.61252 32.46676,37.37053 48.72626,67.48146 56.6056,104.82771 12.54712,59.47078 -6.99705,125.23526 -51.5973,173.62081 L 665.0601,570.0945 492.75461,569.60727 c -94.76802,-0.26812 -182.94152,-2.03853 -195.94111,-3.9345 z m 150.97932,-54.51496 c 3.12389,-6.04351 9.66846,-24.12305 14.5435,-40.17673 11.82066,-38.92611 10.12565,-95.96735 -3.79305,-127.64302 l -9.21773,-20.97747 -33.69993,0 c -40.73524,0 -65.602,5.73431 -79.0953,18.23948 -14.26775,13.2229 -12.85332,26.6111 4.89628,46.34512 l 14.9839,16.65914 -13.98498,-2.73127 C 285.20929,389.6987 239.5258,365.48713 231.98104,342.33913 c -13.20568,-40.5162 34.84168,-65.28257 143.29051,-73.86017 l 34.8439,-2.75592 -11.5273,-22.8354 c -19.16175,-37.95923 -25.323,-65.26176 -23.47061,-104.00608 1.34977,-28.23156 3.94866,-39.346214 14.44475,-61.775851 7.03937,-15.042783 12.79885,-28.047675 12.79885,-28.899756 0,-2.905136 -41.87689,-1.492613 -77.82116,2.624937 -84.16678,9.641612 -161.4543,40.904825 -207.41813,83.90174 -48.794352,45.64472 -67.396212,87.51178 -67.386642,151.66658 0.01279,85.17633 41.894218,148.02353 127.616142,191.50016 61.08958,30.98356 118.9375,43.43926 203.92971,43.90984 l 60.83194,0.33683 5.67982,-10.98819 z m 210.72231,-7.61554 c 20.82627,-30.26993 28.90743,-55.39203 28.93548,-89.95231 0.02,-26.35645 -1.73134,-34.17651 -12.53777,-55.9399 -6.90942,-13.91511 -25.16429,-39.68475 -40.56639,-57.26587 -65.01653,-74.2149 -79.79577,-148.91895 -44.41817,-224.519129 6.72006,-14.360428 12.21827,-26.807027 12.21827,-27.659108 0,-0.852081 -30.40734,-1.54924 -67.57186,-1.54924 l -67.57182,0 -10.98312,12.986052 c -17.77927,21.021549 -31.14443,54.287175 -32.97551,82.075235 -2.49943,37.9318 11.81148,72.79312 55.75596,135.8212 43.42148,62.27798 53.45199,143.0568 27.22823,219.27745 -4.27365,12.42158 -7.77029,23.20224 -7.77029,23.95703 0,0.75479 33.17788,1.37232 73.72865,1.37232 l 73.72865,0 12.79969,-18.60373 z"
         id="path4355"
         style="fill:#0194b8" />
      <path
         d="M 287.02762,563.67839 C 193.78629,548.0475 105.94861,502.58369 58.24651,445.26382 19.335226,398.50716 1.6640376,348.97511 1.5695468,286.39921 1.4589409,213.15117 22.381624,162.80148 74.653344,110.52566 111.5403,73.635812 142.72585,53.416529 192.22306,34.298852 273.60497,2.8661061 312.52611,-1.1346136 537.79415,-1.222545 L 715.18214,-1.2917868 687.91076,23.68139 c -84.23269,77.13424 -91.12629,162.4886 -19.59767,242.65219 42.55353,47.69062 61.85748,85.52656 67.66004,132.61443 5.49334,44.57852 -17.65388,109.52148 -54.23594,152.16688 L 665.45611,570.0945 492.9526,569.68782 C 365.14878,569.3865 311.78883,567.82934 287.02762,563.67839 z m 165.73019,-63.36973 c 16.76515,-36.61995 23.47602,-78.72453 18.07978,-113.43444 -2.52121,-16.21707 -8.02186,-37.25736 -12.22363,-46.7562 -6.25768,-14.14656 -10.04877,-17.72189 -20.95801,-19.7654 -16.17067,-3.02905 -75.94391,4.01685 -88.30743,10.40943 -27.47322,14.20509 -30.85871,34.54124 -9.51739,57.16963 15.26018,16.1805 16.13153,16.07222 -29.37128,3.6506 -89.29331,-24.37578 -107.962,-79.72386 -35.32037,-104.71624 27.26123,-9.37924 70.81683,-16.4286 102.01495,-16.51085 34.38541,-0.0906 36.08578,-2.43673 21.99772,-30.351 -16.72766,-33.14433 -24.76097,-62.91484 -24.76097,-91.76125 0,-27.1283 11.05057,-67.818292 24.23385,-89.232991 l 8.38404,-13.618869 -51.2714,2.567223 C 155.43317,57.987795 28.577714,168.9347 49.927801,315.41752 c 6.827482,46.84331 22.611949,77.62132 57.752069,112.61029 32.8291,32.68789 68.18051,54.03225 117.84033,71.14926 51.73271,17.83149 81.03161,22.18398 152.08882,22.59346 l 65.15133,0.37559 9.99746,-21.83734 z m 202.96835,8.68271 c 16.37869,-21.47357 30.98664,-57.64964 33.21869,-82.26488 3.93149,-43.35711 -12.59899,-80.15159 -61.24902,-136.33157 -44.86988,-51.81473 -63.46331,-111.83259 -51.87033,-167.43275 3.32363,-15.94025 10.60553,-38.948245 16.18202,-51.128866 5.57645,-12.180626 10.13903,-22.828341 10.13903,-23.66159 0,-0.833249 -31.22166,-1.515001 -69.38148,-1.515001 l -69.38147,0 -10.33574,14.983906 c -5.68466,8.241149 -15.10466,25.439205 -20.93328,38.217903 -9.19632,20.161888 -10.39735,27.294368 -9.08324,53.942058 1.76722,35.83595 12.07838,61.2479 43.65051,107.5771 42.54267,62.42742 53.62365,98.54177 50.56469,164.79668 -1.45328,31.47624 -4.45793,48.80183 -11.96638,69.00061 l -10.02588,26.97103 75.21917,0 75.21921,0 10.0335,-13.15463 z"
         id="path4353"
         style="fill:#008daf" />
    </g>
  </g>
</svg>
