<?xml version="1.0" encoding="UTF-8" standalone="no"?>
<!-- Created with Inkscape (http://www.inkscape.org/) -->

<svg
   xmlns:dc="http://purl.org/dc/elements/1.1/"
   xmlns:cc="http://creativecommons.org/ns#"
   xmlns:rdf="http://www.w3.org/1999/02/22-rdf-syntax-ns#"
   xmlns:svg="http://www.w3.org/2000/svg"
   xmlns="http://www.w3.org/2000/svg"
   version="1.1"
   width="694"
   height="678"
   id="svg3131">
  <defs
     id="defs3133" />
  <metadata
     id="metadata3136">
    <rdf:RDF>
      <cc:Work
         rdf:about="">
        <dc:format>image/svg+xml</dc:format>
        <dc:type
           rdf:resource="http://purl.org/dc/dcmitype/StillImage" />
        <dc:title></dc:title>
      </cc:Work>
    </rdf:RDF>
  </metadata>
  <g
     transform="translate(0.70886475,-1.2286873)"
     id="layer1">
    <g
       transform="translate(1.7414078,1.2585921)"
       id="g4485">
      <path
         d="m 277.29114,677.81442 c -3.025,-0.66513 -6.72958,-2.01558 -8.23239,-3.001 -3.08519,-2.02301 -6.46619,-7.04696 -7.74633,-11.51052 -0.57185,-1.99394 1.76257,-35.65966 6.97606,-100.60452 7.69024,-95.79804 7.88436,-97.70761 10.47018,-102.99282 3.11266,-6.36207 7.04986,-9.95026 12.82795,-11.69083 5.79027,-1.74425 32.96177,-1.7009 37.97993,0.0606 7.81142,2.74198 13.85522,10.7917 15.15463,20.18442 0.34004,2.45793 3.98497,46.75438 8.09985,98.43656 7.86763,98.81621 7.80214,96.98093 3.68653,103.30827 -2.4487,3.76464 -7.09068,6.44373 -13.57739,7.83612 -8.07819,1.734 -57.72371,1.71414 -65.63902,-0.0263 z M 46.64933,544.3177 c -4.022566,-1.01422 -9.128098,-4.1791 -12.532761,-7.76896 -4.139844,-4.36503 -31.6836648,-51.04744 -32.4129354,-54.93478 -1.22865815,-6.54931 0.011602,-14.91664 2.8458802,-19.19952 2.4909935,-3.76415 7.7188792,-6.51828 90.4279232,-47.6389 48.281253,-24.00409 89.771863,-44.08927 92.201373,-44.63373 5.39316,-1.20863 11.8765,-0.34289 15.94053,2.1286 7.55685,4.59559 20.04425,23.88593 23.15285,35.76616 1.64207,6.27553 -0.71081,13.64696 -6.23077,19.52066 -3.59574,3.82616 -149.688911,109.16599 -159.063387,114.69195 -3.830253,2.25781 -10.028858,3.15265 -14.328703,2.06852 z m 516.87258,-0.21277 c -3.11811,-0.89978 -155.65448,-109.21439 -161.56998,-114.7293 -5.20385,-4.85144 -8.12989,-11.03718 -8.1044,-17.13295 0.0454,-10.8628 14.17639,-34.55061 23.94361,-40.13682 3.07486,-1.75861 5.55178,-2.28787 10.70938,-2.28833 l 6.70939,-6e-4 87.79061,43.70858 c 55.71118,27.7371 88.96136,44.83869 90.99455,46.80129 4.29336,4.14429 5.64931,8.72081 5.05303,17.0546 -0.48354,6.75809 -0.73185,7.27187 -15.27665,31.60852 -16.39677,27.4354 -20.35661,32.23365 -28.62867,34.69019 -5.83095,1.7316 -6.95048,1.77253 -11.62087,0.42482 z m 65.84344,-3.80203 c -1.18039,-1.18039 -1.71915,-2.71595 -1.39193,-3.96724 0.85676,-3.27625 2.53319,-4.07329 6.62594,-3.15022 8.0847,1.82339 10.35986,-1.97209 3.17839,-5.3023 -6.64675,-3.08225 -9.48661,-6.41079 -9.48661,-11.11903 0,-2.24973 0.67425,-5.05303 1.49833,-6.22957 2.19481,-3.13354 9.63819,-5.68501 14.63114,-5.01531 5.55311,0.74483 7.39232,2.6473 6.14973,6.36125 -0.8881,2.65441 -1.31478,2.84821 -6.27065,2.84821 -7.3841,0 -7.38522,1.77627 -0.003,5.50256 4.82132,2.43379 6.46268,3.87264 7.64464,6.70147 1.29315,3.09494 1.31317,4.10658 0.1422,7.18321 -2.08452,5.4769 -6.77606,8.11276 -14.43978,8.11276 -4.93719,0 -6.78109,-0.42897 -8.27791,-1.92579 z m 27.00588,0.99645 c -1.19808,-0.75831 -1.26551,-3.38068 -0.43161,-16.78631 0.54356,-8.73818 1.32157,-16.42687 1.72892,-17.08598 0.42778,-0.69217 3.02537,-1.19837 6.14947,-1.19837 l 5.40884,0 2.59266,8.5 c 1.42596,4.675 2.77748,8.5 3.00336,8.5 0.22589,0 1.38605,-3.2625 2.57814,-7.25 1.1921,-3.9875 2.61015,-7.8125 3.15123,-8.5 1.05283,-1.33773 10.31023,-1.75541 11.08183,-0.5 0.25354,0.4125 0.78923,8.26408 1.19043,17.44797 l 0.72946,16.69796 -2.78619,0.69929 c -4.76123,1.19499 -5.91972,-0.44432 -6.50059,-9.19861 -0.55978,-8.43654 -0.70745,-8.38022 -4.20356,1.60339 -2.20445,6.29509 -2.39291,6.5097 -5.97807,6.80761 l -3.70185,0.3076 -2.25402,-7.3076 c -2.07503,-6.72732 -2.30753,-7.06938 -2.92796,-4.30761 -0.37067,1.65 -0.72719,4.5975 -0.79227,6.55 -0.0651,1.9525 -0.65831,4.09 -1.31831,4.75 -1.41084,1.41084 -4.70864,1.54367 -6.71991,0.27066 z M 182.79114,311.51951 C 178.6365,310.52825 6.6762734,224.93427 4.2527169,222.6512 -0.22287232,218.43504 -1.8797439,207.9223 0.43397145,198.42151 2.1672562,191.30414 28.208189,148.35191 33.744595,143.47857 c 6.430763,-5.66058 14.340345,-7.61213 21.183414,-5.22662 1.614426,0.56279 38.694076,26.56186 82.399231,57.77571 85.86838,61.32648 85.0044,60.61985 86.52624,70.7682 1.17489,7.83467 -4.66648,21.39927 -14.5962,33.89478 -7.0426,8.86237 -11.6276,11.54751 -19.46614,11.40009 -2.75,-0.0517 -5.9,-0.30877 -7,-0.57122 z m 238.84881,-1.15631 c -5.7487,-2.69799 -14.49886,-13.58271 -20.05538,-24.9478 -6.74035,-13.78644 -6.80064,-20.04507 -0.27983,-29.04679 2.07754,-2.86796 25.41237,-20.08781 81.52771,-60.16307 43.2394,-30.8798 80.142,-56.78223 82.00577,-57.56097 7.12612,-2.97748 16.51298,-0.60247 23.28202,5.8907 3.56548,3.42016 31.08253,48.92408 33.01317,54.59264 2.95173,8.6666 0.24128,19.69296 -5.98342,24.34108 -1.84737,1.37947 -42.28385,21.75656 -89.85885,45.28243 -83.15853,41.12196 -86.75109,42.78949 -93,43.16717 -4.96625,0.30015 -7.47952,-0.0669 -10.65119,-1.55539 z M 297.95912,232.77437 c -10.69297,-1.60866 -14.76236,-4.3434 -19.01251,-12.77693 l -2.84453,-5.64437 -7.83389,-97.52949 c -5.98466,-74.5071 -7.59681,-98.388122 -6.82956,-101.166892 0.55238,-2.000569 2.72401,-5.502783 4.82584,-7.7826993 5.67777,-6.1588367 9.01661,-6.6535014 44.55595,-6.6011685 38.41931,0.056574 41.84368,0.8870555 46.98461,11.3947308 l 2.56476,5.242172 -7.58306,95.409487 c -4.17067,52.47521 -8.04723,97.78139 -8.61456,100.68038 -1.06793,5.45702 -5.26867,11.99415 -9.88103,15.3767 -5.03418,3.6919 -23.1293,5.38431 -36.33202,3.39808 z"
         id="path4501"
         style="fill:#fdebd0" />
      <path
         d="m 274.79114,676.75174 c -5.0316,-1.81234 -11.01691,-8.1139 -12.37359,-13.0274 -0.80921,-2.93072 0.60165,-24.4675 6.4118,-97.87659 4.09712,-51.76548 7.92152,-96.42405 8.49867,-99.24127 1.51073,-7.37431 5.82625,-13.65758 11.0997,-16.16085 6.21338,-2.94944 19.99179,-4.38902 30.14652,-3.14973 9.8024,1.19629 13.71042,2.35325 17.18756,5.08837 3.21613,2.52981 7.2947,10.40438 8.0342,15.51178 0.30522,2.10795 3.93145,46.13264 8.05829,97.83264 8.22728,103.06902 8.15171,99.3435 2.14,105.49242 -6.42106,6.56762 -5.89972,6.48437 -42.20315,6.73949 -26.65843,0.18734 -33.76868,-0.045 -37,-1.20886 z M 45.176206,542.84907 C 36.365185,539.70036 35.051211,538.05465 16.245912,506.61491 2.9161122,484.32942 0.59103035,478.61006 1.9055388,471.33973 2.7777695,466.51557 4.527441,463.26736 7.9518589,460.11492 9.5134613,458.67735 50.047145,438.01928 98.026714,414.20809 184.0802,371.50168 185.34718,370.91378 191.52672,370.82186 c 3.44543,-0.0512 7.764,0.53928 9.59683,1.31228 7.21492,3.04292 20.36477,22.49343 24.26006,35.88413 1.70133,5.84858 -0.74316,13.74056 -5.89904,19.04497 -5.03924,5.18441 -157.697239,114.21819 -162.142176,115.80772 -4.502139,1.60998 -7.615405,1.60438 -12.166188,-0.0219 z m 516.114934,-0.81229 c -2.475,-1.29234 -39.32044,-27.28673 -81.87875,-57.7653 -54.41594,-38.97053 -78.2317,-56.59304 -80.25296,-59.38331 -3.4792,-4.80289 -5.25371,-10.89699 -4.50912,-15.48536 0.93304,-5.74963 9.19153,-21.31713 15.06565,-28.39917 7.11496,-8.57805 10.15533,-10.22461 18.81568,-10.18992 l 6.74049,0.027 86.75951,43.15959 c 49.15638,24.45346 88.42446,44.58311 90.60096,46.44399 2.90134,2.4806 4.17667,4.58592 5.21117,8.60264 2.41893,9.39208 1.11889,12.8375 -14.97282,39.68175 -16.63339,27.74786 -17.28925,28.65938 -23.05049,32.03569 -6.38976,3.74464 -12.93402,4.19403 -18.52932,1.2724 z m 71.82318,-0.51728 c -3.86582,-0.59144 -5.38438,-2.76369 -4.02212,-5.75353 1.00962,-2.21587 1.51134,-2.36053 6.42729,-1.85316 4.11964,0.42518 5.62913,0.19253 6.63801,-1.02309 1.80102,-2.1701 0.78127,-3.38028 -5.25778,-6.23963 -5.08597,-2.4081 -8.60858,-6.44906 -8.60858,-9.87535 0,-5.92352 6.25777,-10.54605 14.27675,-10.54605 5.77571,0 8.23544,1.82313 7.32953,5.43258 -0.66253,2.63973 -0.86986,2.71884 -5.46766,2.08648 -3.66013,-0.50339 -5.0754,-0.30017 -6.04491,0.86803 -1.78253,2.14781 -0.68581,3.37628 5.42804,6.08011 5.63696,2.49293 8.47825,6.16839 8.47825,10.96736 0,3.68128 -4.77557,8.50444 -9.5,9.59467 -4.09826,0.94573 -5.03877,0.97116 -9.67682,0.26158 z m 23.00269,-1.54081 c -0.62698,-2.01934 1.59731,-31.1313 2.48315,-32.5 0.88052,-1.36048 7.45991,-1.68418 9.38279,-0.46163 0.6555,0.41675 2.25762,4.44949 3.56028,8.96163 1.30266,4.51215 2.64597,8.48139 2.98512,8.82054 0.33916,0.33916 1.79654,-3.11839 3.23864,-7.68343 1.44209,-4.56504 3.10508,-8.88216 3.69552,-9.59359 1.64315,-1.97989 8.57143,-1.65278 9.66837,0.45648 0.50055,0.9625 1.23169,8.86707 1.62474,17.5657 l 0.71465,15.81571 -3.83957,-0.31571 -3.83956,-0.3157 -0.59951,-8.76618 c -0.32973,-4.82139 -0.84577,-9.01243 -1.14676,-9.31342 -0.30098,-0.30098 -1.77229,3.19379 -3.26956,7.76618 -3.16872,9.67664 -4.37487,11.30865 -7.73455,10.46543 -2.44191,-0.61288 -2.90053,-1.60768 -5.71757,-12.40201 -1.63073,-6.24862 -3.03205,-5.17835 -3.03205,2.31574 0,3.61116 -0.46583,7.43616 -1.03518,8.5 -1.17385,2.19335 -6.51155,2.70496 -7.13895,0.68426 z M 162.23376,300.85122 C 114.10484,277.55854 8.5792596,224.86012 5.6447168,222.65223 0.04924142,218.44229 -2.1126054,208.21083 0.65221825,199.02402 2.8772433,191.63082 29.650479,147.93291 34.49677,143.78467 c 6.600047,-5.6494 15.276336,-7.14923 21.832923,-3.77417 1.903793,0.97999 38.662325,26.90147 81.685627,57.60329 84.29717,60.15523 83.37095,59.39796 84.869,69.38768 1.12079,7.47398 -5.04655,21.7489 -14.41502,33.36499 -6.96633,8.63764 -10.96111,10.86223 -19.50578,10.86223 -4.66569,0 -7.80751,-1.21977 -26.72976,-10.37747 z m 259.45418,8.53346 c -5.39398,-2.53287 -14.43553,-14.02231 -19.79639,-25.15599 -3.40606,-7.07389 -4.09338,-9.51983 -4.09657,-14.57842 -0.008,-12.05288 -3.69197,-8.92274 85.49348,-72.63317 43.68677,-31.20804 80.75138,-57.20236 82.36581,-57.76515 6.95736,-2.42535 17.22288,0.54932 22.77733,6.60026 2.84059,3.09451 30.18482,48.47164 31.85306,52.85943 2.91274,7.6611 -0.127,20.37057 -5.82935,24.37309 -1.46529,1.02851 -41.58917,21.12288 -89.16417,44.65416 -83.14898,41.1267 -86.75181,42.79943 -93,43.17835 -4.94792,0.30007 -7.47977,-0.0659 -10.6032,-1.53256 z M 297.5454,231.75169 c -9.94253,-1.54233 -14.07851,-4.26925 -17.89328,-11.79735 -2.5609,-5.05368 -2.75688,-6.98046 -10.44483,-102.68799 -6.23875,-77.666427 -7.61958,-98.352578 -6.77778,-101.537663 1.45177,-5.493023 8.18759,-11.8410416 14.1602,-13.3449632 2.95099,-0.7430678 15.06454,-1.1550365 33.96275,-1.1550365 34.03916,0 37.26557,0.5201637 43.06872,6.9435513 6.45879,7.1491114 6.54499,1.9252454 -1.75008,106.0564514 -4.14031,51.975 -8.0144,96.82927 -8.60909,99.67615 -1.19681,5.72935 -5.18022,11.92055 -9.48404,14.74052 -2.84426,1.86363 -18.06116,4.64598 -24.48683,4.47732 -1.925,-0.0505 -7.21058,-0.66747 -11.74574,-1.37099 z"
         id="path4499"
         style="fill:#fcdba9" />
      <path
         d="m 276.92478,677.21796 c -8.07887,-2.47618 -14.63364,-10.61002 -14.63364,-18.15895 0,-7.68547 15.11381,-191.53924 16.02323,-194.91659 1.18531,-4.4019 6.09543,-11.36699 9.19539,-13.04381 5.97672,-3.23291 23.64316,-4.69535 34.34772,-2.84332 9.70733,1.67948 10.25435,1.87707 13.78904,4.98057 7.24876,6.36449 6.81752,3.32746 15.10767,106.39739 4.14532,51.53806 7.52955,96.04329 7.5205,98.90051 -0.0221,6.96549 -3.10467,12.25648 -9.41482,16.15955 l -4.90733,3.03538 -32.0807,0.1839 c -17.64439,0.10115 -33.37056,-0.21143 -34.94706,-0.69463 z M 42.723433,541.21359 c -2.237236,-1.10743 -5.436393,-3.46958 -7.109238,-5.24921 -3.872746,-4.11996 -30.6523882,-48.9614 -32.3075806,-54.09775 -1.7316608,-5.37365 -0.8584216,-13.53796 1.9306815,-18.05083 2.1433588,-3.46802 8.6199781,-6.88714 90.6265661,-47.84327 81.334008,-40.62023 88.788658,-44.14236 94.266788,-44.53861 3.2717,-0.23666 7.55655,0.10041 9.5219,0.74903 3.69907,1.2208 10.40786,7.94314 15.91419,15.9463 4.43109,6.44038 9.7244,19.60752 9.7244,24.18952 0,4.98595 -3.13645,11.7073 -7.28291,15.6071 -4.07802,3.83544 -154.018964,111.09397 -158.678537,113.50887 -4.575938,2.37156 -11.556291,2.2786 -16.60626,-0.22115 z m 518.529147,0.24926 C 554.98642,538.2662 403.54582,429.31991 400.73536,425.98684 c -6.88773,-8.16851 -7.06765,-15.73299 -0.68508,-28.80354 5.43653,-11.13317 13.4952,-21.31437 19.04068,-24.0557 3.37803,-1.66989 5.63083,-2.0408 10.50853,-1.73022 5.8604,0.37317 11.08887,2.82326 93.20018,43.67412 47.84531,23.80333 88.06333,44.26392 89.37339,45.46798 5.326,4.8951 7.24948,13.03579 5.00658,21.18921 -1.25164,4.54995 -27.586,48.94694 -32.0467,54.0274 -6.05015,6.89074 -16.61192,9.41472 -23.88036,5.70676 z m 71.86174,0.0566 c -3.86582,-0.59144 -5.38438,-2.76369 -4.02212,-5.75353 1.00962,-2.21587 1.51134,-2.36053 6.42729,-1.85316 4.11964,0.42518 5.62913,0.19253 6.63801,-1.02309 1.80102,-2.1701 0.78127,-3.38028 -5.25778,-6.23963 -5.08597,-2.40805 -8.60858,-6.44901 -8.60858,-9.8753 0,-5.92352 6.25777,-10.54605 14.27675,-10.54605 5.77571,0 8.23544,1.82313 7.32953,5.43258 -0.66253,2.63973 -0.86986,2.71884 -5.46766,2.08648 -3.66013,-0.50339 -5.0754,-0.30017 -6.04491,0.86803 -1.78253,2.14781 -0.68581,3.37628 5.42804,6.08011 5.63696,2.49293 8.47825,6.16839 8.47825,10.96736 0,3.68128 -4.77557,8.50444 -9.5,9.59467 -4.09826,0.94573 -5.03877,0.97116 -9.67682,0.26158 z m 23.00269,-1.54076 c -0.62698,-2.01934 1.59731,-31.1313 2.48315,-32.5 0.88052,-1.36048 7.45991,-1.68418 9.38279,-0.46163 0.6555,0.41675 2.25762,4.44949 3.56028,8.96163 1.30266,4.51215 2.64597,8.48139 2.98512,8.82054 0.33916,0.33916 1.79654,-3.11839 3.23864,-7.68343 1.44209,-4.56504 3.10508,-8.88216 3.69552,-9.59359 1.64315,-1.97989 8.57143,-1.65278 9.66837,0.45648 0.50055,0.9625 1.23169,8.86707 1.62474,17.5657 l 0.71465,15.81571 -3.83957,-0.31571 -3.83956,-0.3157 -0.59951,-8.76618 c -0.32973,-4.82139 -0.84577,-9.01243 -1.14676,-9.31342 -0.30098,-0.30098 -1.77229,3.19379 -3.26956,7.76618 -3.16872,9.67664 -4.37487,11.30865 -7.73455,10.46543 -2.44191,-0.61288 -2.90053,-1.60768 -5.71757,-12.40201 -1.63073,-6.24862 -3.03205,-5.17835 -3.03205,2.31574 0,3.61116 -0.46583,7.43616 -1.03518,8.5 -1.17385,2.19335 -6.51155,2.70496 -7.13895,0.68426 z M 183.29114,309.87568 C 177.82921,308.305 11.133094,225.92879 6.5400837,222.53062 0.35918645,217.95764 -2.0919286,208.73577 0.58217705,200.11509 2.5015406,193.92751 29.262682,149.5509 33.462925,145.59064 c 5.020704,-4.73383 9.023945,-6.36195 15.642889,-6.36195 7.023445,0 -2.741361,-6.52327 97.645606,65.23105 51.98137,37.15511 69.68772,50.32627 71.91482,53.49504 7.09118,10.08953 3.37061,24.36322 -11.08275,42.51808 -2.95303,3.7093 -6.59529,7.37825 -8.09392,8.15322 -4.1607,2.15158 -11.17909,2.693 -16.19843,1.2496 z m 242.5,0.46152 c -1.65,-0.41867 -4.01816,-1.30822 -5.26258,-1.97678 -3.96986,-2.13279 -13.2441,-14.34968 -17.56007,-23.13173 -3.72338,-7.57628 -4.17735,-9.27852 -4.17735,-15.66386 0,-6.33702 0.34726,-7.66433 3.00875,-11.5 2.34807,-3.38399 19.36586,-16.02443 77.5,-57.5653 95.13965,-67.98387 85.03931,-61.27084 92.18737,-61.27084 6.81961,0 11.74185,2.14797 16.41312,7.16237 4.85462,5.21123 31.10356,49.8114 32.44029,55.12006 1.4728,5.849 0.54475,12.52127 -2.34982,16.89431 -2.54232,3.84086 -18.80748,12.2611 -119.19971,61.70796 -62.53671,30.80163 -65.64726,32.08947 -73,30.22381 z m -127,-78.75105 C 284.7259,229.342 279.21483,223.54098 277.33991,209.00634 275.13681,191.92756 262.0561,20.295121 262.69714,16.878075 c 0.84815,-4.521066 5.52205,-10.0273878 10.99932,-12.958302 3.91528,-2.0950875 5.43098,-2.2045635 34.59468,-2.4987065 21.24858,-0.2143116 31.78027,0.050122 34.72079,0.8717817 9.23552,2.5806557 15.26541,9.8997838 15.27409,18.5397908 0.003,2.807173 -3.37657,47.289302 -7.50975,98.849181 -6.65149,82.97502 -7.75744,94.3091 -9.62627,98.65332 -2.48946,5.7869 -7.31927,10.35055 -12.58153,11.88819 -4.08081,1.19242 -24.87935,2.14431 -29.77733,1.36282 z"
         id="path4497"
         style="fill:#fcd18f" />
      <path
         d="m 274.582,675.63508 c -6.10072,-2.95198 -9.85085,-7.0313 -11.2172,-12.20186 -1.4647,-5.54274 13.97232,-196.08549 16.34131,-201.70453 2.14581,-5.08969 7.05986,-10.18679 11.01294,-11.42316 9.27123,-2.89969 22.59218,-3.09363 37.34347,-0.54369 6.49901,1.12343 13.52071,9.76227 14.73216,18.12508 0.3061,2.11298 3.93491,46.30883 8.06404,98.21301 6.04803,76.02533 7.28909,95.03302 6.38402,97.77541 -1.71229,5.18829 -5.82166,9.40594 -11.69544,12.00361 -5.20154,2.30036 -5.94826,2.34897 -35.53467,2.31322 l -30.22149,-0.0365 -5.20914,-2.52057 z M 45.5062,541.97192 C 38.533387,539.73762 33.835037,533.94435 19.094276,509.40483 10.58168,495.23357 4.3464838,483.72142 3.5627511,480.72869 1.998929,474.75714 3.1561326,467.6314 6.4382607,463.02207 8.1163508,460.66541 26.804495,450.93901 96.310934,416.24709 189.10129,369.93376 189.35737,369.82307 198.20736,372.20613 c 7.55412,2.03411 17.74145,14.82502 23.82663,29.91602 3.30663,8.20031 3.4118,8.83763 2.28741,13.86191 -0.89925,4.01831 -2.28672,6.4401 -5.85441,10.21877 -6.47778,6.86085 -158.737725,115.48823 -163.099301,116.36055 -4.144891,0.82898 -5.724192,0.73426 -9.861489,-0.59146 z m 517.78494,-0.0546 C 558.12511,539.9778 408.67023,432.88275 402.62759,426.79046 c -6.32597,-6.37794 -8.19443,-11.74092 -6.42715,-18.44768 3.32502,-12.61828 16.34406,-32.29117 23.31606,-35.23256 1.80105,-0.75984 6.02913,-1.34141 9.39574,-1.29237 6.0045,0.0875 7.81405,0.93509 95,44.5 80.08517,40.0168 89.06724,44.74281 90.78242,47.76609 2.89505,5.10298 3.58913,10.75276 2.04791,16.66991 -1.59192,6.11182 -26.9495,49.09853 -32.26242,54.69198 -6.0585,6.37838 -14.53855,8.96833 -21.18901,6.47149 z m 69.82318,-0.39782 c -3.86582,-0.59144 -5.38438,-2.76369 -4.02212,-5.75353 1.00962,-2.21587 1.51134,-2.36053 6.42729,-1.85316 4.11964,0.42518 5.62913,0.19253 6.63801,-1.02309 1.80102,-2.1701 0.78127,-3.38028 -5.25778,-6.23963 -5.08597,-2.4081 -8.60858,-6.44906 -8.60858,-9.87535 0,-5.92352 6.25777,-10.54605 14.27675,-10.54605 5.77571,0 8.23544,1.82313 7.32953,5.43258 -0.66253,2.63973 -0.86986,2.71884 -5.46766,2.08648 -3.66013,-0.50339 -5.0754,-0.30017 -6.04491,0.86803 -1.78253,2.14781 -0.68581,3.37628 5.42804,6.08011 5.63696,2.49293 8.47825,6.16839 8.47825,10.96736 0,3.68128 -4.77557,8.50444 -9.5,9.59467 -4.09826,0.94573 -5.03877,0.97116 -9.67682,0.26158 z m 23.00269,-1.54081 c -0.62698,-2.01934 1.59731,-31.1313 2.48315,-32.5 0.88052,-1.36048 7.45991,-1.68418 9.38279,-0.46163 0.6555,0.41675 2.25762,4.44949 3.56028,8.96163 1.30266,4.51215 2.64597,8.48139 2.98512,8.82054 0.33916,0.33916 1.79654,-3.11839 3.23864,-7.68343 1.44209,-4.56504 3.10508,-8.88216 3.69552,-9.59359 1.64315,-1.97989 8.57143,-1.65278 9.66837,0.45648 0.50055,0.9625 1.23169,8.86707 1.62474,17.5657 l 0.71465,15.81571 -3.83957,-0.31571 -3.83956,-0.3157 -0.59951,-8.76618 c -0.32973,-4.82139 -0.84577,-9.01243 -1.14676,-9.31342 -0.30098,-0.30098 -1.77229,3.19379 -3.26956,7.76618 -3.16872,9.67664 -4.37487,11.30865 -7.73455,10.46543 -2.44191,-0.61288 -2.90053,-1.60768 -5.71757,-12.40201 -1.63073,-6.24862 -3.03205,-5.17835 -3.03205,2.31574 0,3.61116 -0.46583,7.43616 -1.03518,8.5 -1.17385,2.19335 -6.51155,2.70496 -7.13895,0.68426 z M 181.29114,308.85263 c -1.925,-0.70855 -41.525,-20.08211 -88.000005,-43.05236 C 18.935118,229.04984 8.2914953,223.50758 4.6291035,219.63285 c -4.59597326,-4.86243 -5.9885111,-9.59416 -4.83422715,-16.4263 0.6280016,-3.71711 25.77488565,-47.35962 32.05090965,-55.62448 3.050775,-4.01754 11.705346,-8.35338 16.673812,-8.35338 2.109676,0 5.283821,0.63447 7.053656,1.40993 5.606638,2.45657 158.975996,112.93007 161.860946,116.59007 1.51736,1.925 3.32952,5.65724 4.02703,8.29387 1.41237,5.33891 0.46384,9.19938 -5.21917,21.24155 -3.56271,7.54931 -13.37119,19.39791 -17.97442,21.71303 -4.07593,2.04992 -11.95399,2.22417 -16.9765,0.37549 z m 241.3897,0.007 c -8.90435,-4.05576 -24.3897,-29.06757 -24.3897,-39.39439 0,-4.79463 3.10819,-10.97978 7.73286,-15.38803 4.78025,-4.55654 156.35916,-112.55281 159.82234,-113.86951 6.86712,-2.61087 17.91048,1.00955 22.85557,7.49289 3.95074,5.17969 29.1681,47.8813 30.45315,51.56759 2.62843,7.53991 0.83281,17.21498 -4.02505,21.68755 -1.33039,1.22487 -41.55088,21.64871 -89.37888,45.38632 -83.77163,41.57686 -87.19831,43.17348 -93.45999,43.54653 -4.23865,0.25253 -7.58207,-0.10557 -9.6103,-1.02931 z m -122.8897,-77.72815 c -9.13241,-1.29882 -10.17705,-1.68034 -14.14845,-5.16724 -7.47146,-6.55995 -6.87635,-2.35912 -15.47486,-109.23555 -5.33839,-66.354387 -7.52745,-98.017721 -6.92884,-100.2213 1.3235,-4.871976 4.56081,-8.8135384 9.81414,-11.9491063 l 4.73801,-2.8279929 30.19354,-0.3045483 c 18.95086,-0.1911485 31.6466,0.086718 34.09588,0.7462424 6.01352,1.6192725 12.10684,6.5679393 14.36058,11.6628961 l 1.97634,4.467854 -7.56448,95.212975 c -4.16047,52.36714 -7.82669,96.78798 -8.14715,98.71298 -0.32046,1.925 -1.75972,5.67119 -3.19836,8.32486 -3.51355,6.48102 -8.3883,9.17719 -19.12535,10.57803 -9.40385,1.2269 -11.96364,1.22689 -20.591,-1e-4 z"
         id="path4495"
         style="fill:#fbc571" />
      <path
         d="m 275.14209,675.1929 c -6.35291,-3.18593 -10.69013,-8.14676 -11.47185,-13.12125 -0.63,-4.00902 14.309,-191.78119 15.66854,-196.94192 1.2646,-4.80034 4.78592,-9.87226 8.67255,-12.49146 5.01913,-3.38239 19.99297,-5.00585 31.57936,-3.42383 5.06025,0.69093 10.11063,1.60175 11.22308,2.02404 3.44568,1.30802 8.31582,7.06785 9.8951,11.70277 1.9615,5.7567 17.17139,194.32552 16.12586,199.92482 -0.87107,4.66491 -7.80923,11.82278 -12.44732,12.84148 -1.69033,0.37126 -3.33005,1.09039 -3.64382,1.59808 -0.33021,0.53429 -13.07545,0.88035 -30.26147,0.82165 l -29.69098,-0.10142 -5.64905,-2.83296 z M 42.568884,539.67981 c -2.813217,-1.40189 -6.201963,-3.98939 -7.530547,-5.75 C 30.211082,527.53282 5.2986655,484.91607 4.3138707,481.3706 2.2245173,473.84848 4.1930209,465.22972 8.9694259,460.98703 10.047839,460.02912 50.006684,439.85185 97.766857,416.14866 192.53014,369.118 190.2944,370.0487 199.79364,373.67649 c 3.48963,1.33271 5.80464,3.35778 10.16176,8.88905 6.24014,7.92174 13.27932,21.82358 14.08252,27.81194 0.63527,4.73626 -1.69126,11.25666 -5.49265,15.39389 -2.94775,3.20818 -154.58667,112.05094 -159.954475,114.81146 -4.570959,2.35074 -10.1201,2.03797 -16.021911,-0.90302 z m 520.222256,1.59906 c -1.67045,-0.68742 -86.46894,-61.03853 -144.8354,-103.07938 -17.35991,-12.50419 -20.62006,-16.28534 -21.40569,-24.82647 -1.04694,-11.3821 16.19001,-38.58411 25.64804,-40.47572 5.14578,-1.02916 9.46942,-0.80202 13.71732,0.72063 2.13165,0.76408 42.36608,20.48209 89.40984,43.8178 62.35688,30.93168 86.13363,43.19074 87.7466,45.24131 1.21688,1.54701 2.72265,4.6665 3.34615,6.9322 2.18058,7.92382 0.24639,12.79401 -15.53727,39.12199 -7.93251,13.23183 -15.69778,25.34619 -17.25617,26.92079 -5.42396,5.48042 -14.94227,8.05119 -20.83342,5.62685 z m 70.32318,0.24063 c -3.86582,-0.59144 -5.38438,-2.76369 -4.02212,-5.75353 1.00962,-2.21587 1.51134,-2.36053 6.42729,-1.85316 4.11964,0.42518 5.62913,0.19253 6.63801,-1.02309 1.80102,-2.1701 0.78127,-3.38028 -5.25778,-6.23963 -5.08597,-2.4081 -8.60858,-6.44906 -8.60858,-9.87535 0,-5.92352 6.25777,-10.54605 14.27675,-10.54605 5.77571,0 8.23544,1.82313 7.32953,5.43258 -0.66253,2.63973 -0.86986,2.71884 -5.46766,2.08648 -3.66013,-0.50339 -5.0754,-0.30017 -6.04491,0.86803 -1.78253,2.14781 -0.68581,3.37628 5.42804,6.08011 5.63696,2.49293 8.47825,6.16839 8.47825,10.96736 0,3.68128 -4.77557,8.50444 -9.5,9.59467 -4.09826,0.94573 -5.03877,0.97116 -9.67682,0.26158 z m 23.00269,-1.54081 c -0.62698,-2.01934 1.59731,-31.1313 2.48315,-32.5 0.88052,-1.36048 7.45991,-1.68418 9.38279,-0.46163 0.6555,0.41675 2.25762,4.44949 3.56028,8.96163 1.30266,4.51215 2.64597,8.48139 2.98512,8.82054 0.33916,0.33916 1.79654,-3.11839 3.23864,-7.68343 1.44209,-4.56504 3.10508,-8.88216 3.69552,-9.59359 1.64315,-1.97989 8.57143,-1.65278 9.66837,0.45648 0.50055,0.9625 1.23169,8.86707 1.62474,17.5657 l 0.71465,15.81571 -3.83957,-0.31571 -3.83956,-0.3157 -0.59951,-8.76618 c -0.32973,-4.82139 -0.84577,-9.01243 -1.14676,-9.31342 -0.30098,-0.30098 -1.77229,3.19379 -3.26956,7.76618 -3.16872,9.67664 -4.37487,11.30865 -7.73455,10.46543 -2.44191,-0.61288 -2.90053,-1.60768 -5.71757,-12.40201 -1.63073,-6.24862 -3.03205,-5.17835 -3.03205,2.31574 0,3.61116 -0.46583,7.43616 -1.03518,8.5 -1.17385,2.19335 -6.51155,2.70496 -7.13895,0.68426 z M 184.79114,309.20644 c -2.2,-0.43873 -42.94645,-20.10966 -90.547677,-43.71316 -83.33783,-41.32384 -91.9523277,-46.00067 -91.9523277,-49.92104 0,-0.64729 -0.525,-1.35188 -1.1666668,-1.56577 -0.72038665,-0.24013 -1.15234379,-2.66279 -1.12922389,-6.33334 0.0425263,-6.75152 0.25171237,-7.16412 20.99990939,-41.41988 13.705999,-22.62893 16.220411,-25.10214 26.258467,-25.82823 4.718314,-0.34129 6.68489,-0.0119 9.362873,1.56813 8.815851,5.20148 156.682366,111.4803 159.383296,114.55649 3.87993,4.419 5.65862,9.72832 5.05454,15.08764 -1.12218,9.95595 -15.20432,32.73645 -22.2305,35.962 -4.26073,1.956 -9.35677,2.53965 -14.03269,1.60716 z m 240.72602,-0.14843 c -7.01747,-1.57049 -17.48896,-14.30512 -23.55452,-28.64523 -4.21239,-9.95887 -3.1466,-18.13344 3.24606,-24.89726 2.47021,-2.61363 154.78742,-111.56579 159.05982,-113.77514 7.04007,-3.64055 18.42507,-0.62463 23.84653,6.31701 1.57702,2.01922 8.98248,13.92137 16.4566,26.44923 14.80404,24.81406 16.81475,29.94086 14.75,37.60876 -2.28291,8.4781 -0.87176,7.66751 -92.01375,52.85411 -72.75154,36.06893 -93.66931,45.80818 -96.97686,45.15211 -0.29694,-0.0589 -2.46319,-0.53752 -4.81388,-1.06359 z M 296.24409,229.81542 c -9.18651,-1.66838 -13.47854,-5.15635 -16.34609,-13.28386 -0.82299,-2.33259 -4.39426,-41.8281 -9.14471,-101.13329 l -7.79438,-97.306055 2.15601,-4.437723 c 1.55172,-3.193892 3.77049,-5.4871254 7.91612,-8.1817639 l 5.7601,-3.7440408 31.5,0 31.5,0 4.77496,2.8494442 c 6.22069,3.7121801 9.85495,8.5610295 10.42338,13.9069375 0.44408,4.176402 -14.16677,190.577631 -15.33533,195.644021 -1.05526,4.57515 -5.24531,10.8645 -8.60416,12.91501 -6.29914,3.84549 -23.68366,5.15447 -36.8059,2.77132 z"
         id="path4493"
         style="fill:#fbb64c" />
      <path
         d="m 296.10295,677.48037 c 8.42149,-0.16744 21.92149,-0.16707 30,8.2e-4 8.0785,0.16789 1.18819,0.30489 -15.31181,0.30444 -16.5,-4.5e-4 -23.10969,-0.13781 -14.68819,-0.30526 z m -19.76464,-2.53057 c -4.87979,-1.59243 -10.78667,-7.81558 -11.61638,-12.23835 -0.82218,-4.38261 14.24575,-194.19703 15.78077,-198.79426 1.48771,-4.45552 5.37219,-9.42189 8.72587,-11.15614 5.44341,-2.8149 19.85939,-4.0091 31.10151,-2.57642 9.03943,1.15198 10.57846,1.64724 13.73728,4.42069 6.92832,6.08307 6.44754,2.63315 14.67945,105.3345 4.14938,51.76773 7.54265,96.29794 7.54059,98.95601 -0.005,6.01678 -2.48858,10.30623 -8.1319,14.04284 l -4.21371,2.79002 -32.07532,0.17394 c -21.53551,0.11678 -33.20992,-0.19632 -35.52816,-0.95283 z M 633.11432,541.5195 c -3.86582,-0.59144 -5.38438,-2.76369 -4.02212,-5.75353 1.00962,-2.21587 1.51134,-2.36053 6.42729,-1.85316 4.11964,0.42518 5.62913,0.19253 6.63801,-1.02309 1.80102,-2.1701 0.78127,-3.38028 -5.25778,-6.23963 -5.08597,-2.4081 -8.60858,-6.44906 -8.60858,-9.87535 0,-5.92352 6.25777,-10.54605 14.27675,-10.54605 5.77571,0 8.23544,1.82313 7.32953,5.43258 -0.66253,2.63973 -0.86986,2.71884 -5.46766,2.08648 -3.66013,-0.50339 -5.0754,-0.30017 -6.04491,0.86803 -1.78253,2.14781 -0.68581,3.37628 5.42804,6.08011 5.63696,2.49293 8.47825,6.16839 8.47825,10.96736 0,3.68128 -4.77557,8.50444 -9.5,9.59467 -4.09826,0.94573 -5.03877,0.97116 -9.67682,0.26158 z M 43.291135,539.27033 c -1.925,-1.02849 -4.898947,-3.3711 -6.608771,-5.20581 C 33.415338,530.55887 9.6489773,491.43766 6.2901699,484.03668 3.6590355,478.2391 3.7506518,471.72428 6.5411352,466.19058 l 2.2500001,-4.46189 87.9999997,-43.94394 c 85.208815,-42.55013 88.206175,-43.95553 94.500005,-44.30915 4.92974,-0.27699 7.27478,0.0718 9.70715,1.44394 8.06857,4.55147 22.29285,28.29686 22.29285,37.21469 0,5.04192 -2.65772,10.50277 -7.16237,14.71663 -3.67743,3.44004 -153.61803,110.85897 -157.7578,113.01926 -3.635753,1.89727 -10.950681,1.60632 -15.079835,-0.59979 z m 519.500005,1.00712 c -2.9314,-1.20843 -154.40529,-109.69462 -158.33763,-113.40204 -4.43712,-4.18332 -7.16237,-9.68884 -7.16237,-14.46934 0,-11.80591 16.63571,-37.08041 25.50106,-38.74356 8.96646,-1.68211 9.36865,-1.50704 100.57445,43.7805 79.34879,39.40003 87.77958,43.81514 89.74794,47.00001 1.19484,1.93329 2.45166,4.91123 2.79294,6.61764 1.44268,7.21338 -0.30737,11.38896 -15.24738,36.37988 -7.98593,13.35848 -15.72343,25.56686 -17.19444,27.12973 -5.38,5.71596 -14.52765,8.24115 -20.67457,5.70718 z m 93.32587,-0.29876 c -0.62698,-2.01934 1.59731,-31.1313 2.48315,-32.5 0.88052,-1.36048 7.45991,-1.68418 9.38279,-0.46163 0.6555,0.41675 2.25762,4.44949 3.56028,8.96163 1.30266,4.51215 2.64597,8.48139 2.98512,8.82054 0.33916,0.33916 1.79654,-3.11839 3.23864,-7.68343 1.44209,-4.56504 3.10508,-8.88216 3.69552,-9.59359 1.64315,-1.97989 8.57143,-1.65278 9.66837,0.45648 0.50055,0.9625 1.23169,8.86707 1.62474,17.5657 l 0.71465,15.81571 -3.83957,-0.31571 -3.83956,-0.3157 -0.59951,-8.76618 c -0.32973,-4.82139 -0.84577,-9.01243 -1.14676,-9.31342 -0.30098,-0.30098 -1.77229,3.19379 -3.26956,7.76618 -3.16872,9.67664 -4.37487,11.30865 -7.73455,10.46543 -2.44191,-0.61288 -2.90053,-1.60768 -5.71757,-12.40201 -1.63073,-6.24862 -3.03205,-5.17835 -3.03205,2.31574 0,3.61116 -0.46583,7.43616 -1.03518,8.5 -1.17385,2.19335 -6.51155,2.70496 -7.13895,0.68426 z M 184.21885,308.21806 C 182.25409,307.73171 141.75409,288.04877 94.218844,264.47819 4.6737534,220.07683 2.4118804,218.80877 2.2208499,212.90196 c -0.066337,-2.05118 -0.1132791,-2.06335 -0.8356076,-0.21653 -1.18904401,3.0401 -2.05533338,-4.0201 -1.09899542,-8.95674 0.42618967,-2.2 0.86722452,-3.1 0.98007752,-2 0.1459842,1.42294 0.4732778,1.07257 1.134339,-1.2143 0.5110334,-1.76786 7.7222416,-14.52311 16.0249066,-28.34501 13.389713,-22.29058 15.613441,-25.45903 19.676441,-28.03571 5.857575,-3.71476 13.822891,-4.03517 19.176814,-0.77139 5.840125,3.56016 153.309735,108.97145 156.353895,111.76177 4.14934,3.80334 6.65842,9.34239 6.65842,14.6991 0,8.75307 -12.46978,30.43373 -21,36.51179 -3.05504,2.17681 -10.25285,3.0761 -15.07229,1.88312 z m 241.23093,0.0531 c -6.43297,-1.59266 -16.93335,-14.42452 -22.24919,-27.18935 -4.03143,-9.68063 -3.80381,-16.91179 0.71101,-22.58777 2.59,-3.25611 120.72682,-88.85699 152.16959,-110.26071 9.82518,-6.6882 10.55249,-7.00464 16.09951,-7.00464 4.68391,0 6.59833,0.53281 9.88102,2.75 5.40908,3.6534 5.78737,4.19061 21.55336,30.60809 13.31839,22.31628 15.65908,27.23412 15.67048,32.92403 0.007,3.49232 -2.47998,9.54138 -5.04559,12.27235 -1.07565,1.14498 -41.21667,21.49785 -89.20228,45.22862 -90.33231,44.67289 -91.61974,45.23212 -99.58791,43.25938 z M 295.36567,228.76954 c -5.43045,-1.0676 -7.00706,-1.88671 -10.18116,-5.2895 -2.06562,-2.21446 -4.21996,-5.76443 -4.78741,-7.88882 -0.95283,-3.56718 -16.10596,-187.046422 -16.10596,-195.016469 0,-1.949093 0.75507,-5.135006 1.67794,-7.079807 1.78424,-3.7599968 9.24542,-9.2160221 12.76784,-9.336542 1.99154,-0.068141 1.99452,-0.093637 0.0975,-0.8356076 -3.75418,-1.4683283 5.41169,-2.0720958 31.45672,-2.0720958 26.04503,0 35.2109,0.6037675 31.45674,2.0720958 -1.74138,0.6810906 -1.75975,0.773058 -0.1669,0.8356076 3.46067,0.1358974 9.66883,4.1155761 12.17612,7.805377 1.85126,2.724374 2.53404,5.036173 2.53404,8.579902 0,2.667898 -3.38789,47.225938 -7.52864,99.017869 -7.26644,90.88765 -7.61638,94.34818 -10.04822,99.36539 -1.50917,3.11359 -3.81312,5.99769 -5.74511,7.19172 -6.33136,3.913 -24.62411,5.20255 -37.6035,2.65088 z"
         id="path4491"
         style="fill:#fbaf3a" />
      <path
         d="m 633.11432,541.5195 c -3.86582,-0.59144 -5.38438,-2.76369 -4.02212,-5.75353 1.00962,-2.21587 1.51134,-2.36053 6.42729,-1.85316 4.11964,0.42518 5.62913,0.19253 6.63801,-1.02309 1.80102,-2.1701 0.78127,-3.38028 -5.25778,-6.23963 -5.08597,-2.4081 -8.60858,-6.44906 -8.60858,-9.87535 0,-5.92352 6.25777,-10.54605 14.27675,-10.54605 5.77571,0 8.23544,1.82313 7.32953,5.43258 -0.66253,2.63973 -0.86986,2.71884 -5.46766,2.08648 -3.66013,-0.50339 -5.0754,-0.30017 -6.04491,0.86803 -1.78253,2.14781 -0.68581,3.37628 5.42804,6.08011 5.63696,2.49293 8.47825,6.16839 8.47825,10.96736 0,3.68128 -4.77557,8.50444 -9.5,9.59467 -4.09826,0.94573 -5.03877,0.97116 -9.67682,0.26158 z m 23.00269,-1.54081 c -0.62698,-2.01934 1.59731,-31.1313 2.48315,-32.5 0.88052,-1.36048 7.45991,-1.68418 9.38279,-0.46163 0.6555,0.41675 2.25762,4.44949 3.56028,8.96163 1.30266,4.51215 2.64597,8.48139 2.98512,8.82054 0.33916,0.33916 1.79654,-3.11839 3.23864,-7.68343 1.44209,-4.56504 3.10508,-8.88216 3.69552,-9.59359 1.64315,-1.97989 8.57143,-1.65278 9.66837,0.45648 0.50055,0.9625 1.23169,8.86707 1.62474,17.5657 l 0.71465,15.81571 -3.83957,-0.31571 -3.83956,-0.3157 -0.59951,-8.76618 c -0.32973,-4.82139 -0.84577,-9.01243 -1.14676,-9.31342 -0.30098,-0.30098 -1.77229,3.19379 -3.26956,7.76618 -3.16872,9.67664 -4.37487,11.30865 -7.73455,10.46543 -2.44191,-0.61288 -2.90053,-1.60768 -5.71757,-12.40201 -1.63073,-6.24862 -3.03205,-5.17835 -3.03205,2.31574 0,3.61116 -0.46583,7.43616 -1.03518,8.5 -1.17385,2.19335 -6.51155,2.70496 -7.13895,0.68426 z"
         id="path4489"
         style="fill:#4b97cb" />
      <path
         d="m 632.04114,539.53936 c -0.9625,-0.25152 -1.75,-1.3519 -1.75,-2.44527 0,-1.78278 0.45422,-1.91983 4.40124,-1.32794 5.28929,0.79318 8.24379,-0.006 9.63501,-2.60518 1.56664,-2.92731 -0.34851,-5.50421 -5.57385,-7.49979 -7.27253,-2.7774 -9.85938,-7.27235 -7.35213,-12.77517 1.49221,-3.27504 4.88661,-4.65732 11.43678,-4.65732 4.88389,0 5.45295,0.22056 5.45295,2.1135 0,1.81492 -0.45837,2.04622 -3.24461,1.63729 -1.78454,-0.26191 -4.48454,-0.044 -6,0.48433 -4.8533,1.69187 -2.99925,7.3873 3.00001,9.2157 9.51629,2.9003 11.19718,13.58191 2.69623,17.13384 -3.25236,1.35892 -9.01853,1.68851 -12.70163,0.72601 z m 57.57317,-0.007 c -2.26535,-0.44102 -2.90135,-3.58549 -3.58515,-17.72569 -0.40855,-8.44812 -2.3448,-6.61737 -6.25754,5.91656 -3.25221,10.418 -3.85168,11.59275 -5.7741,11.31509 -2.06949,-0.2989 -3.89855,-5.20373 -7.10759,-19.05982 -0.35029,-1.51231 -1.24215,-2.74981 -1.98192,-2.74981 -1.5739,0 -2.61687,6.23322 -2.61687,15.63957 0,6.11036 -0.0979,6.36043 -2.4891,6.36043 l -2.48909,0 0.61696,-9.25 c 0.33933,-5.0875 0.89693,-11.95 1.2391,-15.25 l 0.62213,-6 3.94519,0 3.94519,0 1.73273,6 c 0.953,3.3 2.23251,7.9125 2.84336,10.25 0.65028,2.48843 1.7004,4.25 2.53353,4.25 0.83586,0 1.87394,-1.75342 2.51613,-4.25 0.60127,-2.3375 2.00531,-7.0625 3.12008,-10.5 l 2.02685,-6.25 3.91847,0 3.91847,0 0,4.3 c 0,2.365 0.39986,4.7275 0.88857,5.25 0.98167,1.04952 2.13437,22.53161 1.19733,22.31382 -0.32224,-0.0749 -1.56547,-0.32689 -2.76273,-0.55996 z"
         id="path4487"
         style="fill:#0c73ba" />
    </g>
  </g>
</svg>
